<?xml version="1.0" encoding="UTF-8"?>
<svg version="1.1" xmlns="http://www.w3.org/2000/svg" width="64" height="64">
<path d="M0 0 C0.66 0 1.32 0 2 0 C2 6.93 2 13.86 2 21 C11.24 21 20.48 21 30 21 C30 21.66 30 22.32 30 23 C16.635 23.495 16.635 23.495 3 24 C3 24.66 3 25.32 3 26 C16.86 26.495 16.86 26.495 31 27 C31 27.66 31 28.32 31 29 C28.69 29 26.38 29 24 29 C23.855625 29.94875 23.71125 30.8975 23.5625 31.875 C23 35 23 35 22 37 C25.96 37 29.92 37 34 37 C33.505 35.02 33.505 35.02 33 33 C33 32.01 33 31.02 33 30 C32.505 29.01 32.505 29.01 32 28 C31.48487383 23.90842645 31.05632731 19.76410454 33.046875 16.04296875 C35.44498774 13.14407364 37.39648288 11.20188165 41.171875 10.7265625 C48.98876369 10.41862446 48.98876369 10.41862446 52.5625 13.375 C56.01581975 17.09395973 56.01581975 17.09395973 55.95703125 20.4609375 C55.90933594 21.42257813 55.86164062 22.38421875 55.8125 23.375 C55.62091901 27.77596941 55.62091901 27.77596941 58 31.3125 C58.66 31.869375 59.32 32.42625 60 33 C60.25 36.25 60.25 36.25 60 39 C57.3125 39.25 57.3125 39.25 54 39 C53.2575 38.34 52.515 37.68 51.75 37 C48.11008825 34.35279146 45.58559788 34.71414225 41.20703125 34.95703125 C39 35 39 35 37 34 C37 34.99 37 35.98 37 37 C37.66 37 38.32 37 39 37 C39 37.66 39 38.32 39 39 C31.74 39 24.48 39 17 39 C17 38.34 17 37.68 17 37 C17.66 37 18.32 37 19 37 C19.144375 36.05125 19.28875 35.1025 19.4375 34.125 C20 31 20 31 21 29 C20.43490723 29.01047363 19.86981445 29.02094727 19.28759766 29.03173828 C16.73344347 29.07324788 14.17936018 29.0993096 11.625 29.125 C10.73554688 29.14175781 9.84609375 29.15851562 8.9296875 29.17578125 C8.07890625 29.18222656 7.228125 29.18867187 6.3515625 29.1953125 C5.17327881 29.21102295 5.17327881 29.21102295 3.97119141 29.22705078 C2 29 2 29 0 27 C-0.22705078 24.29443359 -0.22705078 24.29443359 -0.1953125 20.8984375 C-0.18886719 19.68671875 -0.18242187 18.475 -0.17578125 17.2265625 C-0.15902344 15.95554687 -0.14226563 14.68453125 -0.125 13.375 C-0.11146484 11.456875 -0.11146484 11.456875 -0.09765625 9.5 C-0.07402303 6.33314833 -0.04107629 3.16666576 0 0 Z M40 14 C40 14.33 40 14.66 40 15 C42.64 15 45.28 15 48 15 C48 14.67 48 14.34 48 14 C45.36 14 42.72 14 40 14 Z M36 17 C37 19 37 19 37 19 Z M51 17 C52 19 52 19 52 19 Z M39 20 C38.66666667 23 38.66666667 23 39 26 C40.88500271 28.31563087 40.88500271 28.31563087 44 28.25 C47.11499729 28.31563087 47.11499729 28.31563087 49 26 C49.33333333 23 49.33333333 23 49 20 C47.11499729 17.68436913 47.11499729 17.68436913 44 17.75 C40.88500271 17.68436913 40.88500271 17.68436913 39 20 Z M35 19 C35 21.64 35 24.28 35 27 C35.33 27 35.66 27 36 27 C36 24.36 36 21.72 36 19 C35.67 19 35.34 19 35 19 Z M52 19 C52 21.64 52 24.28 52 27 C52.33 27 52.66 27 53 27 C53 24.36 53 21.72 53 19 C52.67 19 52.34 19 52 19 Z M36 27 C37 29 37 29 37 29 Z M40 31 C40 31.33 40 31.66 40 32 C42.64 32 45.28 32 48 32 C48 31.67 48 31.34 48 31 C45.36 31 42.72 31 40 31 Z " fill="#5CACD5" transform="translate(2,23)"/>
<path d="M0 0 C2.97790338 1.19116135 4.51091369 2.49522465 6.5 5 C6.5 5.99 6.5 6.98 6.5 8 C5.51 8 4.52 8 3.5 8 C3.5 8.66 3.5 9.32 3.5 10 C4.61375 9.95875 5.7275 9.9175 6.875 9.875 C10.5 10 10.5 10 12.5 12 C12.72705078 14.33837891 12.72705078 14.33837891 12.6953125 17.2265625 C12.68886719 18.2578125 12.68242188 19.2890625 12.67578125 20.3515625 C12.65902344 21.43179687 12.64226563 22.51203125 12.625 23.625 C12.61597656 24.71296875 12.60695312 25.8009375 12.59765625 26.921875 C12.57403409 29.61480152 12.54109556 32.30729255 12.5 35 C11.84 35 11.18 35 10.5 35 C10.17 27.74 9.84 20.48 9.5 13 C7.52 12.67 5.54 12.34 3.5 12 C3.5 17.94 3.5 23.88 3.5 30 C2.84 30 2.18 30 1.5 30 C1.005 17.625 1.005 17.625 0.5 5 C-0.16 5 -0.82 5 -1.5 5 C-1.83 13.58 -2.16 22.16 -2.5 31 C-3.16 31 -3.82 31 -4.5 31 C-4.5 24.73 -4.5 18.46 -4.5 12 C-16.38 12.33 -28.26 12.66 -40.5 13 C-40.83 14.98 -41.16 16.96 -41.5 19 C-42.16 19 -42.82 19 -43.5 19 C-43.625 15.625 -43.625 15.625 -43.5 12 C-41.5 10 -41.5 10 -37.87646484 9.77294922 C-36.32125311 9.77326643 -34.76601949 9.78459701 -33.2109375 9.8046875 C-31.98330185 9.80893234 -31.98330185 9.80893234 -30.73086548 9.81326294 C-28.11209607 9.82447468 -25.49366636 9.84958071 -22.875 9.875 C-21.10156743 9.88502853 -19.32812951 9.8941546 -17.5546875 9.90234375 C-13.20299374 9.92441722 -8.8515545 9.95895356 -4.5 10 C-4.5 9.34 -4.5 8.68 -4.5 8 C-5.49 8 -6.48 8 -7.5 8 C-7.11094382 5.27660672 -6.43262433 3.91096786 -4.75 1.6875 C-2.5 0 -2.5 0 0 0 Z " fill="#5CACD4" transform="translate(45.5,2)"/>
<path d="M0 0 C2.64 0 5.28 0 8 0 C8 5.94 8 11.88 8 18 C7.34 18 6.68 18 6 18 C6 12.72 6 7.44 6 2 C4.68 2 3.36 2 2 2 C2 9.59 2 17.18 2 25 C-6.58 25 -15.16 25 -24 25 C-24 24.34 -24 23.68 -24 23 C-22.68 23 -21.36 23 -20 23 C-20 20.03 -20 17.06 -20 14 C-17.36 14 -14.72 14 -12 14 C-12 16.97 -12 19.94 -12 23 C-11.34 23 -10.68 23 -10 23 C-10 17.72 -10 12.44 -10 7 C-7.36 7 -4.72 7 -2 7 C-2 12.28 -2 17.56 -2 23 C-1.34 23 -0.68 23 0 23 C0 15.41 0 7.82 0 0 Z M-8 9 C-8 13.62 -8 18.24 -8 23 C-6.68 23 -5.36 23 -4 23 C-4 18.38 -4 13.76 -4 9 C-5.32 9 -6.64 9 -8 9 Z M-18 16 C-18 18.31 -18 20.62 -18 23 C-16.68 23 -15.36 23 -14 23 C-14 20.69 -14 18.38 -14 16 C-15.32 16 -16.64 16 -18 16 Z " fill="#5CACD5" transform="translate(31,17)"/>
<path d="M0 0 C2.475 0.495 2.475 0.495 5 1 C5.33 2.65 5.66 4.3 6 6 C3 6 3 6 1.3125 4.6875 C0 3 0 3 0 0 Z " fill="#5BABD5" transform="translate(51,2)"/>
<path d="M0 0 C0.99 0 1.98 0 3 0 C2.67 1.32 2.34 2.64 2 4 C1.01 4 0.02 4 -1 4 C-0.67 2.68 -0.34 1.36 0 0 Z " fill="#5BACD4" transform="translate(43,42)"/>
<path d="M0 0 C0.66 0 1.32 0 2 0 C2 0.66 2 1.32 2 2 C1.34 2 0.68 2 0 2 C0 1.34 0 0.68 0 0 Z " fill="#5CACD5" transform="translate(15,16)"/>
<path d="M0 0 C0.66 0 1.32 0 2 0 C2 0.66 2 1.32 2 2 C1.34 2 0.68 2 0 2 C0 1.34 0 0.68 0 0 Z " fill="#5CACD5" transform="translate(11,16)"/>
<path d="M0 0 C0.66 0 1.32 0 2 0 C2 0.66 2 1.32 2 2 C1.34 2 0.68 2 0 2 C0 1.34 0 0.68 0 0 Z " fill="#5CACD5" transform="translate(7,16)"/>
</svg>
