<svg xmlns="http://www.w3.org/2000/svg" version="1.1" xmlns:xlink="http://www.w3.org/1999/xlink" width="512" height="512" x="0" y="0" viewBox="0 0 500 500" style="enable-background:new 0 0 512 512" xml:space="preserve" class=""><g><path fill-rule="evenodd" d="M209.399 28.104a7.032 7.032 0 1 1 11.902 7.494l-8.346 13.224a7.032 7.032 0 1 1-11.902-7.494zm68.176 371.188 13.698 13.699a.943.943 0 0 0 1.328.002 14.03 14.03 0 0 1 9.923-4.087c3.601 0 7.207 1.372 9.95 4.113l26.904 26.904a14.029 14.029 0 0 1 4.113 9.95c0 3.6-1.371 7.207-4.113 9.95l-11.247 11.246a14.026 14.026 0 0 1-9.949 4.113 14.035 14.035 0 0 1-9.95-4.113l-26.903-26.904a14.034 14.034 0 0 1-4.114-9.95c0-3.589 1.363-7.183 4.087-9.923a.942.942 0 0 0-.002-1.328l-13.698-13.698a.943.943 0 0 1 0-1.33l8.644-8.644a.942.942 0 0 1 1.329 0zm-91.577-96.954c-1.84 2.123-3.746 4.057-5.564 5.903-.475.482-.944.958-1.416 1.443a.93.93 0 0 0-.141 1.126l1.446 2.504-.012.007 25.415 44.02.029.046c.072.111.143.223.21.339a6.728 6.728 0 0 0 4.107 3.13c1.591.426 3.317.295 4.842-.483a.728.728 0 0 0 .061-.034l.204-.124a6.735 6.735 0 0 0 3.139-4.112c.451-1.684.273-3.525-.645-5.115l-5.505-9.535a.942.942 0 0 1 .331-1.277l11.266-6.75.025-.015c2.796-1.797 4.687-4.538 5.5-7.573.819-3.058.552-6.394-.976-9.349a.771.771 0 0 0-.055-.092 7.068 7.068 0 0 1-.476-.823l-.03-.056-17.524-30.352.012-.007-.012-.021c-1.769-3.064-4.661-5.134-7.894-6-2.982-.799-6.228-.565-9.127.864.064.21.123.42.179.63a.901.901 0 0 1-.011.517l-6.045 19.487a.905.905 0 0 1-.168.315c-.38.468-.769.93-1.165 1.387zm-17.566-36.637-46.759-80.988a.941.941 0 0 0-1.284-.344l-10.089 5.825-.007-.012-.021.012c-.263.152-.527.3-.792.444l46.999 81.405c.137.238.345.39.613.448a.911.911 0 0 0 .745-.151c3.066-2.171 6.497-4.109 10.072-5.275a.913.913 0 0 0 .586-.557.915.915 0 0 0-.063-.807zm16.98-159.136c5.973 10.346 10.649 21.027 14.065 31.787 2.928 9.221 4.934 18.457 6.041 27.552.049.4.328.711.72.802 2.784.648 6.551 1.648 8.886 2.11.29.057.564-.014.79-.205s.341-.449.333-.745c-1.335-45.794-29.454-96.475-68.259-120.434-.255-.157-.54-.185-.821-.081s-.479.311-.57.597c-.826 2.601-2.018 7.589-2.878 10.506a.926.926 0 0 0 .338 1.018 151.122 151.122 0 0 1 20.868 18.994c7.569 8.293 14.477 17.689 20.487 28.099zm-77.439 19.619a.933.933 0 0 1 .185-1.168c16.372-14.779 24.893-34.205 30.423-50.378.103-.301.327-.513.633-.6s.608-.024.854.178a138.823 138.823 0 0 1 14.445 13.727 147.113 147.113 0 0 1 18.724 25.62c5.466 9.467 9.738 19.221 12.853 29.031a137.362 137.362 0 0 1 4.647 19.393c.051.314-.046.606-.274.827s-.524.309-.835.247c-16.761-3.295-37.837-5.625-58.826 1.171a.931.931 0 0 1-1.104-.424zm-4.727 51.832 11.696-6.753c.145-.084.292-.163.441-.235l.051-.027c.274-.156.549-.31.823-.462.229-.127.381-.319.451-.571s.039-.495-.092-.722l-19.891-34.452c-.131-.227-.325-.375-.579-.44s-.496-.03-.72.105c-.421.253-.847.505-1.277.753-.121.07-.244.136-.368.198l-.048.026-11.288 6.516.007.012c-4.948 2.857-8.281 7.488-9.663 12.646-1.385 5.169-.822 10.845 2.021 15.783l.012-.007c2.857 4.948 7.488 8.281 12.647 9.663 5.169 1.385 10.845.822 15.783-2.021zm35.325 205.952a.925.925 0 0 1-1.048-.057 82.482 82.482 0 0 1-8.637-7.519c-7.519-7.52-13.271-16.139-17.254-25.339a.936.936 0 0 1 .393-1.188l13.235-7.642c12.733-7.352 17.312-18.22 22.486-30.504.176-.417.333-.79 1.502-3.516a346.363 346.363 0 0 0 1.799-4.331c2.521-6.142 4.4-10.721 9.614-15.664a53.993 53.993 0 0 1 2.639-2.36c2.877-2.39 6.294-4.704 9.466-5.578 1.415-.39 2.802-.414 4.005.187a.9.9 0 0 1 .394.371l2.491 4.315a.905.905 0 0 1 .118.593 4.456 4.456 0 0 1-.092.485c-.532 2.133-2.25 4.528-4.318 6.915-1.51 1.743-3.275 3.533-4.958 5.242-.954.968-1.886 1.914-2.672 2.741-3.679 3.871-3.192 7.872-2.732 11.635l.002.017.031.223c.063.485.088.571.115.867a7.006 7.006 0 0 0 .916 2.889l-.007.004 2.086 3.613.012-.007 19.261 33.361a.942.942 0 0 1-.332 1.277zm138.897-65.484c0 24.129-9.494 47.052-26.558 64.117-17.065 17.064-39.987 26.558-64.116 26.558-24.13 0-47.052-9.494-64.117-26.558-17.065-17.065-26.559-39.987-26.559-64.117 0-24.129 9.494-47.051 26.558-64.116a92.032 92.032 0 0 1 5.543-5.079l1.266-1.073a.934.934 0 0 0 .207-1.187l-7.844-13.588a.911.911 0 0 0-.644-.454.908.908 0 0 0-.763.195l-1.81 1.47c-.432.35-.86.705-1.286 1.063-2.404 2.022-4.704 4.177-6.925 6.397-20.323 20.323-31.634 47.638-31.634 76.374s11.312 56.051 31.634 76.374c20.323 20.323 47.637 31.635 76.374 31.635 28.736 0 56.051-11.311 76.374-31.634s31.634-47.638 31.634-76.374-11.311-56.051-31.634-76.374c-14.824-14.824-33.456-24.994-53.976-29.318-17.77-3.745-36.29-2.974-53.681 2.268l-2.403.724a.916.916 0 0 0-.603.554.911.911 0 0 0 .06.816l7.958 13.784a.93.93 0 0 0 1.06.437l1.476-.399c14.484-3.918 29.89-4.185 44.499-.761 16.468 3.859 31.393 12.193 43.353 24.152 17.064 17.063 26.557 39.985 26.557 64.114zm-6.546-88.182a122.37 122.37 0 0 0-13.71-11.309.915.915 0 0 1-.396-.767v-36.979a7.053 7.053 0 0 1 7.053-7.053h33.407a7.053 7.053 0 0 1 7.053 7.053v98.561c0 .465-.331.854-.79.928s-.897-.191-1.043-.633a120.986 120.986 0 0 0-12.274-26.138 122.309 122.309 0 0 0-19.3-23.663zM380.42 65.229v282.69a7.053 7.053 0 0 0 7.053 7.053h33.407a7.053 7.053 0 0 0 7.053-7.053V65.229a7.053 7.053 0 0 0-7.053-7.053h-33.407a7.053 7.053 0 0 0-7.053 7.053zm-20.786 56.713h-33.406a7.053 7.053 0 0 0-7.053 7.053V347.92a7.053 7.053 0 0 0 7.053 7.053h33.406a7.053 7.053 0 0 0 7.053-7.053V128.995a7.052 7.052 0 0 0-7.053-7.053zM244.123 69.573a7.036 7.036 0 0 1 9.505 2.948 7.036 7.036 0 0 1-2.948 9.505l-13.84 7.279a7.037 7.037 0 0 1-6.557-12.453zm21.606 50.512a7.031 7.031 0 0 1-.551 14.051l-15.625-.616a7.031 7.031 0 0 1 .551-14.051z" clip-rule="evenodd" fill="#5cacd5" opacity="1" data-original="#000000" class=""></path></g></svg>