<svg width="40" height="41" viewBox="0 0 40 41" fill="none" xmlns="http://www.w3.org/2000/svg">
<path d="M5.53914 10.1706C5.53914 10.0192 5.59929 9.87395 5.70637 9.76688C5.81345 9.6598 5.95868 9.59964 6.11011 9.59964H7.73338C7.88481 9.59964 8.03003 9.6598 8.13711 9.76688C8.24419 9.87395 8.30435 10.0192 8.30435 10.1706C8.30435 10.322 8.24419 10.4673 8.13711 10.5744C8.03003 10.6814 7.88481 10.7416 7.73338 10.7416H6.11011C5.95868 10.7416 5.81345 10.6814 5.70637 10.5744C5.59929 10.4673 5.53914 10.322 5.53914 10.1706ZM30.6533 15.6274L32.0591 16.439C32.1898 16.5132 32.3445 16.5326 32.4895 16.4931C32.6344 16.4535 32.7578 16.3582 32.8327 16.2279C32.9076 16.0976 32.9278 15.943 32.889 15.7978C32.8502 15.6526 32.7555 15.5287 32.6256 15.4532L31.2199 14.6416C31.0892 14.5674 30.9345 14.5479 30.7895 14.5875C30.6446 14.627 30.5212 14.7224 30.4463 14.8527C30.3714 14.9829 30.3512 15.1376 30.39 15.2827C30.4288 15.4279 30.5235 15.5518 30.6533 15.6274ZM7.3744 4.88808L8.78013 5.69967C8.9108 5.77387 9.06553 5.79331 9.2105 5.75375C9.35547 5.7142 9.47888 5.61885 9.55376 5.48857C9.62863 5.35829 9.64888 5.20366 9.61008 5.05848C9.57128 4.91331 9.47658 4.7894 9.34669 4.71385L7.94096 3.90226C7.81029 3.82806 7.65556 3.80862 7.51059 3.84817C7.36562 3.88773 7.24221 3.98307 7.16733 4.11336C7.09246 4.24364 7.07221 4.39827 7.11101 4.54344C7.14981 4.68862 7.24451 4.81252 7.3744 4.88808ZM8.78013 14.6416L7.3744 15.4532C7.24451 15.5288 7.14981 15.6527 7.11101 15.7979C7.07221 15.943 7.09246 16.0977 7.16733 16.228C7.24221 16.3582 7.36562 16.4536 7.51059 16.4931C7.65556 16.5327 7.81029 16.5132 7.94096 16.4391L9.34669 15.6275C9.47658 15.5519 9.57128 15.428 9.61008 15.2828C9.64888 15.1377 9.62863 14.983 9.55376 14.8527C9.47888 14.7225 9.35547 14.6271 9.2105 14.5876C9.06553 14.548 8.9108 14.5674 8.78013 14.6416ZM31.2199 5.69967L32.6256 4.88808C32.7555 4.81252 32.8502 4.68862 32.889 4.54344C32.9278 4.39827 32.9076 4.24364 32.8327 4.11336C32.7578 3.98307 32.6344 3.88773 32.4895 3.84817C32.3445 3.80862 32.1898 3.82806 32.0591 3.90226L30.6533 4.71385C30.5235 4.7894 30.4288 4.91331 30.39 5.05848C30.3512 5.20366 30.3714 5.35829 30.4463 5.48857C30.5212 5.61885 30.6446 5.7142 30.7895 5.75375C30.9345 5.79331 31.0892 5.77387 31.2199 5.69967ZM31.6958 10.1706C31.6958 10.322 31.7559 10.4673 31.863 10.5744C31.9701 10.6814 32.1153 10.7416 32.2667 10.7416H33.89C34.0414 10.7416 34.1867 10.6814 34.2938 10.5744C34.4008 10.4673 34.461 10.322 34.461 10.1706C34.461 10.0192 34.4008 9.87395 34.2938 9.76688C34.1867 9.6598 34.0414 9.59964 33.89 9.59964H32.2667C32.1153 9.59964 31.9701 9.6598 31.863 9.76688C31.7559 9.87395 31.6958 10.0192 31.6958 10.1706ZM25.4366 19.2351C25.1575 19.239 24.8702 19.2152 24.5747 19.1651C23.9997 19.0676 23.4741 19.2855 23.1364 19.761C22.7023 20.3723 22.1876 20.8326 21.5792 21.1173L23.3253 25.9854L25.0507 23.9035L27.7618 24.1443L25.4366 19.2351H25.4366ZM16.8638 19.761C16.526 19.2854 16.0003 19.0678 15.4252 19.1652C15.1274 19.2156 14.8379 19.2394 14.5568 19.235L12.2383 24.1299L14.9495 23.8892L16.6749 25.9711L18.4166 21.1154C17.8101 20.8304 17.2969 20.3709 16.8637 19.761L16.8638 19.761ZM20.0001 20.3102C19.0227 20.3102 18.3463 19.8763 17.7948 19.0997C17.2015 18.2644 16.2447 17.8681 15.2346 18.0393C14.2954 18.1983 13.5105 18.0271 12.8193 17.3358C12.1283 16.6448 11.9567 15.8596 12.1159 14.9206C12.287 13.9106 11.8907 12.9537 11.0554 12.3604C10.2788 11.8088 9.84499 11.1325 9.84499 10.1551C9.84499 9.1777 10.2788 8.50142 11.0554 7.94978C11.8907 7.35655 12.287 6.39968 12.1159 5.38963C11.9569 4.45039 12.1281 3.66555 12.8194 2.97435C13.5105 2.28331 14.2957 2.11169 15.2347 2.27091C16.2447 2.44204 17.2016 2.04571 17.7949 1.21046C18.3464 0.433856 19.0228 0 20.0002 0C20.9776 0 21.6539 0.433856 22.2055 1.21046C22.7988 2.04571 23.7556 2.44204 24.7657 2.27083C25.7049 2.11186 26.4897 2.28307 27.1809 2.97435C27.872 3.6653 28.0436 4.45055 27.8844 5.38955C27.7133 6.3996 28.1096 7.35646 28.9448 7.9497C29.7214 8.50126 30.1553 9.17761 30.1553 10.155C30.1553 11.1325 29.7214 11.8087 28.9448 12.3604C28.1096 12.9535 27.7133 13.9105 27.8845 14.9205C28.0434 15.8598 27.8722 16.6446 27.1809 17.3358C26.4899 18.0268 25.7047 18.1985 24.7657 18.0392C23.7556 17.8681 22.7988 18.2644 22.2055 19.0997C21.6539 19.8763 20.9776 20.3102 20.0002 20.3102H20.0001ZM20.0001 16.549C23.5218 16.549 26.3941 13.6767 26.3941 10.155C26.3941 6.63337 23.5218 3.76106 20.0001 3.76106C16.4784 3.76106 13.6061 6.63337 13.6061 10.155C13.6061 13.6767 16.4784 16.549 20.0001 16.549ZM23.7869 8.65208L21.3398 8.34449L20.291 6.11224C20.2367 5.99682 20.1276 5.92749 20 5.92749C19.8724 5.92749 19.7634 5.99682 19.7091 6.11224L18.6604 8.34449L16.2133 8.65208C16.0868 8.66798 15.9871 8.75037 15.9477 8.87166C15.9083 8.99295 15.9405 9.11815 16.0335 9.20543L17.8325 10.8926L17.3688 13.315C17.3448 13.4403 17.3924 13.5605 17.4956 13.6355C17.5988 13.7105 17.7278 13.7185 17.8396 13.657L20.0001 12.4675L22.1607 13.657C22.2724 13.7185 22.4014 13.7105 22.5046 13.6355C22.6078 13.5605 22.6554 13.4403 22.6314 13.315L22.1677 10.8926L23.9666 9.20543C24.0597 9.11823 24.0918 8.99295 24.0524 8.87166C24.013 8.75037 23.9134 8.66798 23.7869 8.65208ZM33.9202 34.5686L26.7447 36.4913C26.1523 36.6501 25.7974 37.2647 25.9561 37.8572L26.5357 40.02L35.8657 37.52L35.2861 35.3573C35.1274 34.7648 34.5127 34.4099 33.9202 34.5687V34.5686ZM39.5093 9.82191C38.865 8.28494 37.1319 8.78838 37.1318 10.5655C37.1318 13.6792 37.706 18.9308 36.0158 22.0805C35.1401 23.6867 33.6764 25.32 32.8476 25.8482C32.4901 26.0762 32.1411 25.9471 31.9799 25.6943C31.8186 25.4416 31.9127 25.064 32.1654 24.9028C32.8827 24.4457 34.1736 22.9878 34.9676 21.5314C35.2716 20.9737 35.4993 20.4305 35.5794 19.9761C35.8179 18.6246 34.0288 18.0303 33.3044 19.4022C28.7466 27.2965 22.4243 24.2401 26.4257 35.3845L26.4465 35.3786L33.622 33.4559C33.6509 33.4482 33.6798 33.4412 33.7087 33.4347C33.8627 31.6019 34.7718 29.996 35.8622 28.3438C36.7011 27.0726 37.7983 25.6112 38.5987 24.1512C39.7171 22.1114 39.8831 20.5613 39.9673 18.2516C40.0632 15.6222 39.9593 10.8958 39.5093 9.82191ZM6.69568 19.4023C5.97128 18.0304 4.1821 18.6247 4.42061 19.9762C4.50079 20.4306 4.72836 20.9739 5.03244 21.5315C5.82642 22.9879 7.11738 24.4457 7.83468 24.9029C8.08738 25.064 8.18142 25.4417 8.02017 25.6944C7.85899 25.9472 7.50996 26.0763 7.15245 25.8482C6.32365 25.3201 4.85993 23.6868 3.98422 22.0806C2.29407 18.9309 2.86822 13.6793 2.86822 10.5656C2.86822 8.78854 1.13508 8.28511 0.49078 9.822C0.0406922 10.8959 -0.0632244 15.6222 0.0327802 18.2517C0.116958 20.5614 0.282947 22.1115 1.40131 24.1513C2.20173 25.6112 3.29898 27.0727 4.13781 28.3439C5.22828 29.9961 6.13735 31.6021 6.29135 33.4348C6.32022 33.4413 6.3491 33.4483 6.37805 33.456L13.5535 35.3787C13.5605 35.3806 13.5674 35.3826 13.5743 35.3846C17.5758 24.2402 11.2534 27.2965 6.69568 19.4023ZM13.2553 36.4914L6.07985 34.5687C5.48734 34.4099 4.87265 34.7648 4.71392 35.3573L4.13439 37.52L13.4644 40.02L14.0439 37.8572C14.2026 37.2648 13.8477 36.6501 13.2553 36.4913V36.4914Z" fill="#5CACD5"/>
</svg>
