<svg width="42" height="38" viewBox="0 0 42 38" fill="none" xmlns="http://www.w3.org/2000/svg">
<path fill-rule="evenodd" clip-rule="evenodd" d="M6.38108 32.5689L6.46124 32.6515C6.71142 32.9078 6.70537 33.3228 6.44699 33.5709L2.5211 37.3829C2.26281 37.631 1.84988 37.625 1.6017 37.3687L0.183934 35.9081C-0.0663254 35.6498 -0.060192 35.2369 0.196115 34.9887L4.12399 31.1768C4.3803 30.9286 4.79529 30.9347 5.04348 31.191L5.12442 31.2744L7.36648 29.0982C6.55247 27.9371 6.07475 26.5229 6.07475 24.9971C6.07475 21.0468 9.27647 17.8451 13.2268 17.8451C17.1771 17.8451 20.3788 21.0468 20.3788 24.9971C20.3788 28.9474 17.1771 32.1491 13.2268 32.1491C11.453 32.1491 9.83029 31.5036 8.58046 30.4347L6.38108 32.5689ZM13.2268 29.5349C15.7275 29.5349 17.7646 27.4978 17.7646 24.9971C17.7646 22.4994 15.7275 20.4592 13.2268 20.4592C10.7291 20.4592 8.68896 22.4994 8.68896 24.9971C8.68896 27.4978 10.7291 29.5349 13.2268 29.5349ZM10.6064 25.6138C10.4769 25.4842 10.4041 25.3084 10.4041 25.1251C10.4041 24.9419 10.4769 24.7661 10.6064 24.6364C10.736 24.5069 10.9118 24.4342 11.0951 24.4342C11.2783 24.4342 11.4541 24.5069 11.5837 24.6364L12.3625 25.4153L14.8972 23.1159C15.033 22.9928 15.2121 22.9287 15.3951 22.9376C15.5782 22.9465 15.7502 23.0278 15.8734 23.1635C15.9965 23.2993 16.0606 23.4784 16.0517 23.6614C16.0428 23.8444 15.9616 24.0164 15.8259 24.1396L12.8037 26.8813C12.6722 27.0005 12.5 27.0646 12.3225 27.0603C12.1451 27.0559 11.9762 26.9835 11.8507 26.858L10.6064 25.6138ZM24.9813 13.0229C24.9813 12.9542 25.0086 12.8882 25.0572 12.8396C25.1058 12.791 25.1717 12.7638 25.2405 12.7638H26.9872C27.0559 12.7638 27.1218 12.7911 27.1704 12.8397C27.219 12.8883 27.2464 12.9542 27.2464 13.0229V20.6732C27.2464 20.742 27.219 20.8079 27.1704 20.8565C27.1218 20.9051 27.0559 20.9324 26.9872 20.9324H25.2405C25.1717 20.9324 25.1058 20.9051 25.0572 20.8565C25.0086 20.8079 24.9813 20.742 24.9813 20.6732V13.0229ZM29.1872 14.5673C29.1872 14.4986 29.2145 14.4327 29.2631 14.3841C29.3117 14.3355 29.3776 14.3082 29.4463 14.3082H31.1931C31.2619 14.3082 31.3278 14.3355 31.3764 14.3841C31.425 14.4327 31.4523 14.4986 31.4523 14.5673V20.6732C31.4523 20.742 31.425 20.8079 31.3764 20.8565C31.3278 20.9051 31.2619 20.9324 31.1931 20.9324H29.4463C29.3776 20.9324 29.3117 20.9051 29.2631 20.8565C29.2145 20.8079 29.1872 20.742 29.1872 20.6732V14.5673ZM33.3946 10.0504C33.3947 9.98167 33.422 9.91581 33.4706 9.86723C33.5192 9.81865 33.5851 9.79131 33.6538 9.79122H35.4006C35.4693 9.79122 35.5352 9.81853 35.5838 9.86713C35.6324 9.91573 35.6597 9.98165 35.6597 10.0504V20.6732C35.6597 20.742 35.6324 20.8079 35.5838 20.8565C35.5352 20.9051 35.4693 20.9324 35.4006 20.9324H33.6538C33.585 20.9323 33.5192 20.905 33.4706 20.8564C33.422 20.8078 33.3947 20.7419 33.3946 20.6732V10.0504ZM20.7739 17.7095C20.7739 17.6408 20.8012 17.5749 20.8498 17.5263C20.8984 17.4777 20.9643 17.4504 21.0331 17.4504H22.7812C22.85 17.4504 22.9159 17.4777 22.9645 17.5263C23.0131 17.5749 23.0404 17.6408 23.0404 17.7095V21.5371C23.0404 21.6059 23.0131 21.6718 22.9646 21.7204C22.9159 21.769 22.85 21.7962 22.7812 21.7963H21.0331C20.9643 21.7962 20.8984 21.769 20.8497 21.7204C20.8012 21.6718 20.7739 21.6058 20.7739 21.5371V17.7095ZM23.6676 11.2079C23.7374 11.4062 23.773 11.6148 23.7728 11.825C23.7728 12.8528 22.935 13.6891 21.9071 13.6891C20.8793 13.6891 20.0415 12.8528 20.0415 11.825C20.0415 10.7974 20.8795 9.95933 21.9071 9.95933C22.2139 9.95933 22.5037 10.034 22.7594 10.1661L24.354 8.77714C24.2843 8.57933 24.2488 8.3711 24.2489 8.16138C24.2489 7.13348 25.0876 6.29571 26.1131 6.29571C27.1407 6.29571 27.9787 7.13374 27.9787 8.16138C27.9787 8.21071 27.9767 8.2596 27.9729 8.30806L29.0733 8.85074C29.4043 8.55254 29.8418 8.37069 30.3205 8.37069C30.5678 8.37069 30.804 8.41916 31.0201 8.5071L32.8296 6.61827C32.7191 6.3759 32.662 6.11256 32.6623 5.84616C32.6623 4.81834 33.4986 3.98057 34.5264 3.98057C35.5541 3.98057 36.3921 4.81851 36.3921 5.84616C36.3921 6.8738 35.5541 7.71183 34.5264 7.71183C34.2866 7.71205 34.049 7.6657 33.8269 7.57534L32.0173 9.46425C32.1279 9.70659 32.185 9.9699 32.1847 10.2363C32.1847 11.2621 31.3486 12.1005 30.3205 12.1005C29.2927 12.1005 28.4549 11.2619 28.4549 10.2363C28.4549 10.187 28.4568 10.1381 28.4606 10.0896L27.3592 9.5464C27.0285 9.84392 26.5914 10.0255 26.1131 10.0255C25.8071 10.0255 25.5177 9.95086 25.2623 9.81895L23.6676 11.2079ZM21.9071 12.3069C22.1732 12.3069 22.3906 12.091 22.3906 11.825C22.3904 11.6968 22.3394 11.574 22.2487 11.4834C22.1581 11.3927 22.0353 11.3417 21.9071 11.3415C21.779 11.3418 21.6561 11.3928 21.5655 11.4834C21.4749 11.574 21.4239 11.6969 21.4237 11.825C21.4237 12.091 21.6411 12.3069 21.9071 12.3069ZM26.1131 8.64333C26.3791 8.64333 26.5966 8.42676 26.5966 8.16138C26.5963 8.03322 26.5453 7.91037 26.4547 7.81975C26.3641 7.72912 26.2412 7.67811 26.1131 7.67788C25.8476 7.67788 25.6311 7.89531 25.6311 8.16138C25.6311 8.42659 25.8479 8.64333 26.1131 8.64333ZM34.5264 6.32966C34.7928 6.32966 35.0099 6.11248 35.0099 5.84616C35.0099 5.57983 34.7928 5.36274 34.5264 5.36274C34.2604 5.36274 34.0445 5.58009 34.0445 5.84616C34.0445 6.11223 34.2604 6.32966 34.5264 6.32966ZM30.3205 10.7183C30.4482 10.7181 30.5707 10.6672 30.6611 10.5769C30.7514 10.4865 30.8023 10.3641 30.8025 10.2363C30.8025 9.9703 30.5865 9.75287 30.3205 9.75287C30.1923 9.75312 30.0695 9.80413 29.9789 9.89473C29.8883 9.98534 29.8373 10.1081 29.8371 10.2363C29.8371 10.5017 30.0544 10.7183 30.3205 10.7183ZM14.1877 5.38244C14.2412 5.40308 14.3576 5.43349 14.4019 5.47159L17.1678 7.80919C17.2121 7.84728 17.2329 7.97747 17.2569 8.02351H14.4372C14.3004 8.02351 14.1877 7.92658 14.1877 7.8091V5.38244ZM5.35758 28.3058H3.1886C1.43532 28.3058 1.88702e-05 26.8705 1.88702e-05 25.1172V3.18858C1.88702e-05 1.4353 1.43532 0 3.1886 0H38.2766C40.0299 0 41.4652 1.4353 41.4652 3.18858V25.1172C41.4652 26.8705 40.0299 28.3058 38.2766 28.3058H27.2504V33.3714H32.1022C33.5966 33.3714 34.8207 34.3479 34.8207 35.5412V37.7138H6.64732V35.5412C6.64732 34.3479 7.87149 33.3714 9.36588 33.3714H11.5742C12.1186 33.478 12.6721 33.5315 13.2268 33.5312C17.9404 33.5312 21.7609 29.7107 21.7609 24.9971C21.7614 24.3025 21.6773 23.6104 21.5105 22.9361H38.8001V3.10971C38.8001 2.8649 38.6003 2.66794 38.3582 2.66794H3.10973C2.86492 2.66794 2.66511 2.8649 2.66511 3.10971V22.9361H4.94301C4.77618 23.6104 4.69208 24.3025 4.69258 24.9971C4.69258 26.1703 4.92928 27.2883 5.35758 28.3058ZM6.00616 20.4455H5.9393C5.85873 20.4455 5.78145 20.4136 5.72437 20.3567C5.6673 20.2999 5.63509 20.2227 5.63479 20.1421V5.68695C5.63484 5.6062 5.66693 5.52877 5.72403 5.47168C5.78113 5.41458 5.85855 5.38248 5.9393 5.38244H12.8055V7.8091C12.8055 8.62458 13.488 9.40568 14.4372 9.40568H17.2569V17.4723C16.0566 16.8282 14.6844 16.4629 13.2268 16.4629C10.1865 16.4629 7.51783 18.0522 6.00616 20.4455ZM7.35784 15.8758H13.6329C14.0143 15.8758 14.324 15.5662 14.324 15.1847C14.324 14.8033 14.0143 14.4936 13.6329 14.4936H7.35784C6.97645 14.4936 6.66675 14.8033 6.66675 15.1847C6.66675 15.5662 6.97645 15.8758 7.35784 15.8758ZM7.35784 13.3559H13.6329C14.0143 13.3559 14.324 13.0463 14.324 12.6648C14.324 12.2835 14.0143 11.9738 13.6329 11.9738H7.35784C6.97645 11.9738 6.66675 12.2835 6.66675 12.6648C6.66675 13.0463 6.97645 13.3559 7.35784 13.3559ZM7.35784 10.8361H11.4459C11.8273 10.8361 12.137 10.5265 12.137 10.145C12.137 9.76358 11.8273 9.45389 11.4459 9.45389H7.35784C6.97645 9.45389 6.66675 9.76358 6.66675 10.145C6.66675 10.5265 6.97645 10.8361 7.35784 10.8361Z" fill="#5CACD5"/>
</svg>
